<svg width="307" height="228" viewBox="0 0 307 228" fill="none" xmlns="http://www.w3.org/2000/svg">
<g filter="url(#filter0_d_0_546)">
<rect x="54" y="20" width="199" height="120" rx="15" fill="white"/>
</g>
<path d="M84.752 61.192C85.6053 61.192 86.368 61.048 87.04 60.76C87.7227 60.472 88.2987 60.0933 88.768 59.624C89.2373 59.144 89.5733 58.6213 89.776 58.056L87.824 57.144C87.5893 57.7413 87.2053 58.2373 86.672 58.632C86.1493 59.016 85.5093 59.208 84.752 59.208C84.0053 59.208 83.3493 59.032 82.784 58.68C82.2187 58.328 81.776 57.8427 81.456 57.224C81.136 56.5947 80.976 55.864 80.976 55.032C80.976 54.2 81.136 53.4747 81.456 52.856C81.776 52.2267 82.2187 51.7413 82.784 51.4C83.3493 51.048 84.0053 50.872 84.752 50.872C85.5093 50.872 86.1493 51.0693 86.672 51.464C87.2053 51.848 87.5893 52.3387 87.824 52.936L89.776 52.024C89.5733 51.4587 89.2373 50.9413 88.768 50.472C88.2987 49.992 87.7227 49.608 87.04 49.32C86.368 49.032 85.6053 48.888 84.752 48.888C83.8987 48.888 83.1093 49.0427 82.384 49.352C81.6587 49.6507 81.0293 50.0773 80.496 50.632C79.9627 51.176 79.5467 51.8267 79.248 52.584C78.9493 53.3307 78.8 54.1467 78.8 55.032C78.8 55.9173 78.9493 56.7387 79.248 57.496C79.5467 58.2427 79.9627 58.8933 80.496 59.448C81.0293 60.0027 81.6587 60.4347 82.384 60.744C83.1093 61.0427 83.8987 61.192 84.752 61.192ZM95.4664 61.192C96.309 61.192 97.077 61 97.7704 60.616C98.4637 60.2213 99.0184 59.6827 99.4344 59C99.8504 58.3067 100.058 57.5227 100.058 56.648C100.058 55.7733 99.8504 54.9947 99.4344 54.312C99.029 53.6293 98.4797 53.0907 97.7864 52.696C97.093 52.3013 96.3197 52.104 95.4664 52.104C94.6024 52.104 93.8237 52.3013 93.1304 52.696C92.437 53.0907 91.8824 53.6293 91.4664 54.312C91.061 54.9947 90.8584 55.7733 90.8584 56.648C90.8584 57.5227 91.061 58.3013 91.4664 58.984C91.8824 59.6667 92.437 60.2053 93.1304 60.6C93.8344 60.9947 94.613 61.192 95.4664 61.192ZM95.4664 59.272C94.997 59.272 94.5757 59.16 94.2024 58.936C93.8397 58.712 93.5517 58.4027 93.3384 58.008C93.1357 57.6027 93.0344 57.1493 93.0344 56.648C93.0344 56.1467 93.1357 55.6987 93.3384 55.304C93.5517 54.9093 93.8397 54.6 94.2024 54.376C94.5757 54.1413 94.997 54.024 95.4664 54.024C95.9357 54.024 96.3464 54.1413 96.6984 54.376C97.061 54.6 97.3437 54.9093 97.5464 55.304C97.7597 55.6987 97.8664 56.1467 97.8664 56.648C97.8664 57.1493 97.7597 57.6027 97.5464 58.008C97.3437 58.4027 97.061 58.712 96.6984 58.936C96.3464 59.16 95.9357 59.272 95.4664 59.272ZM104.752 61.192C105.296 61.192 105.776 61.0907 106.192 60.888C106.619 60.6747 106.955 60.3653 107.2 59.96V61H109.184V52.296H107.088V57.4C107.088 57.976 106.923 58.4347 106.592 58.776C106.261 59.1067 105.84 59.272 105.328 59.272C104.805 59.272 104.379 59.1067 104.048 58.776C103.728 58.4453 103.568 58.0027 103.568 57.448V52.296H101.472V57.624C101.472 58.6907 101.76 59.5547 102.336 60.216C102.923 60.8667 103.728 61.192 104.752 61.192ZM111.132 61H113.228V56.152C113.228 55.4907 113.41 54.9787 113.772 54.616C114.146 54.2427 114.626 54.056 115.212 54.056H115.964V52.2H115.452C114.919 52.2 114.45 52.296 114.044 52.488C113.639 52.68 113.324 53.0267 113.1 53.528V52.296H111.132V61ZM120.429 61.192C121.09 61.192 121.666 61.08 122.157 60.856C122.647 60.632 123.031 60.3227 123.309 59.928C123.586 59.5227 123.725 59.0587 123.725 58.536C123.725 57.928 123.533 57.4053 123.149 56.968C122.765 56.5307 122.21 56.2107 121.485 56.008L120.093 55.592C119.794 55.5067 119.549 55.3947 119.357 55.256C119.165 55.1173 119.069 54.9253 119.069 54.68C119.069 54.424 119.17 54.216 119.373 54.056C119.575 53.896 119.853 53.816 120.205 53.816C120.642 53.816 121.037 53.9333 121.389 54.168C121.751 54.4027 122.002 54.7173 122.141 55.112L123.741 54.36C123.474 53.656 123.026 53.1067 122.397 52.712C121.767 52.3067 121.042 52.104 120.221 52.104C119.591 52.104 119.031 52.216 118.541 52.44C118.061 52.664 117.682 52.9787 117.405 53.384C117.138 53.7787 117.005 54.2427 117.005 54.776C117.005 55.3733 117.191 55.8907 117.565 56.328C117.949 56.7653 118.509 57.0907 119.245 57.304L120.669 57.704C120.946 57.7787 121.181 57.8907 121.373 58.04C121.575 58.1787 121.677 58.3707 121.677 58.616C121.677 58.904 121.559 59.1333 121.325 59.304C121.101 59.464 120.802 59.544 120.429 59.544C119.938 59.544 119.495 59.4053 119.101 59.128C118.706 58.8507 118.391 58.4667 118.157 57.976L116.589 58.728C116.845 59.4747 117.314 60.072 117.997 60.52C118.69 60.968 119.501 61.192 120.429 61.192ZM129.463 61.192C130.349 61.192 131.122 60.9947 131.783 60.6C132.455 60.1947 132.925 59.6827 133.191 59.064L131.495 58.232C131.303 58.5627 131.037 58.8347 130.695 59.048C130.365 59.2507 129.959 59.352 129.479 59.352C128.85 59.352 128.322 59.16 127.895 58.776C127.469 58.392 127.223 57.88 127.159 57.24H133.431C133.474 57.1227 133.501 56.9893 133.511 56.84C133.533 56.68 133.543 56.52 133.543 56.36C133.543 55.5813 133.378 54.872 133.047 54.232C132.717 53.592 132.237 53.08 131.607 52.696C130.978 52.3013 130.21 52.104 129.303 52.104C128.493 52.104 127.757 52.3013 127.095 52.696C126.445 53.0907 125.927 53.6293 125.543 54.312C125.17 54.984 124.983 55.7573 124.983 56.632C124.983 57.4747 125.17 58.2427 125.543 58.936C125.917 59.6293 126.439 60.1787 127.111 60.584C127.783 60.9893 128.567 61.192 129.463 61.192ZM129.303 53.832C129.858 53.832 130.317 54.0027 130.679 54.344C131.053 54.6747 131.261 55.1067 131.303 55.64H127.207C127.325 55.064 127.57 54.6213 127.943 54.312C128.327 53.992 128.781 53.832 129.303 53.832ZM137.976 61H140.072V55.896C140.072 55.3307 140.237 54.8773 140.568 54.536C140.899 54.1947 141.32 54.024 141.832 54.024C142.344 54.024 142.765 54.1947 143.096 54.536C143.427 54.8667 143.592 55.32 143.592 55.896V61H145.688V55.4C145.688 54.7493 145.549 54.1787 145.272 53.688C144.995 53.1867 144.605 52.7973 144.104 52.52C143.613 52.2427 143.048 52.104 142.408 52.104C141.907 52.104 141.453 52.1947 141.048 52.376C140.643 52.5467 140.317 52.808 140.072 53.16V48.888H137.976V61ZM151.716 61.192C152.559 61.192 153.327 61 154.02 60.616C154.714 60.2213 155.268 59.6827 155.684 59C156.1 58.3067 156.308 57.5227 156.308 56.648C156.308 55.7733 156.1 54.9947 155.684 54.312C155.279 53.6293 154.73 53.0907 154.036 52.696C153.343 52.3013 152.57 52.104 151.716 52.104C150.852 52.104 150.074 52.3013 149.38 52.696C148.687 53.0907 148.132 53.6293 147.716 54.312C147.311 54.9947 147.108 55.7733 147.108 56.648C147.108 57.5227 147.311 58.3013 147.716 58.984C148.132 59.6667 148.687 60.2053 149.38 60.6C150.084 60.9947 150.863 61.192 151.716 61.192ZM151.716 59.272C151.247 59.272 150.826 59.16 150.452 58.936C150.09 58.712 149.802 58.4027 149.588 58.008C149.386 57.6027 149.284 57.1493 149.284 56.648C149.284 56.1467 149.386 55.6987 149.588 55.304C149.802 54.9093 150.09 54.6 150.452 54.376C150.826 54.1413 151.247 54.024 151.716 54.024C152.186 54.024 152.596 54.1413 152.948 54.376C153.311 54.6 153.594 54.9093 153.796 55.304C154.01 55.6987 154.116 56.1467 154.116 56.648C154.116 57.1493 154.01 57.6027 153.796 58.008C153.594 58.4027 153.311 58.712 152.948 58.936C152.596 59.16 152.186 59.272 151.716 59.272ZM161.002 61.192C161.546 61.192 162.026 61.0907 162.442 60.888C162.869 60.6747 163.205 60.3653 163.45 59.96V61H165.434V52.296H163.338V57.4C163.338 57.976 163.173 58.4347 162.842 58.776C162.511 59.1067 162.09 59.272 161.578 59.272C161.055 59.272 160.629 59.1067 160.298 58.776C159.978 58.4453 159.818 58.0027 159.818 57.448V52.296H157.722V57.624C157.722 58.6907 158.01 59.5547 158.586 60.216C159.173 60.8667 159.978 61.192 161.002 61.192ZM167.382 61H169.478V56.152C169.478 55.4907 169.66 54.9787 170.022 54.616C170.396 54.2427 170.876 54.056 171.462 54.056H172.214V52.2H171.702C171.169 52.2 170.7 52.296 170.294 52.488C169.889 52.68 169.574 53.0267 169.35 53.528V52.296H167.382V61ZM176.679 61.192C177.34 61.192 177.916 61.08 178.407 60.856C178.897 60.632 179.281 60.3227 179.559 59.928C179.836 59.5227 179.975 59.0587 179.975 58.536C179.975 57.928 179.783 57.4053 179.399 56.968C179.015 56.5307 178.46 56.2107 177.735 56.008L176.343 55.592C176.044 55.5067 175.799 55.3947 175.607 55.256C175.415 55.1173 175.319 54.9253 175.319 54.68C175.319 54.424 175.42 54.216 175.623 54.056C175.825 53.896 176.103 53.816 176.455 53.816C176.892 53.816 177.287 53.9333 177.639 54.168C178.001 54.4027 178.252 54.7173 178.391 55.112L179.991 54.36C179.724 53.656 179.276 53.1067 178.647 52.712C178.017 52.3067 177.292 52.104 176.471 52.104C175.841 52.104 175.281 52.216 174.791 52.44C174.311 52.664 173.932 52.9787 173.655 53.384C173.388 53.7787 173.255 54.2427 173.255 54.776C173.255 55.3733 173.441 55.8907 173.815 56.328C174.199 56.7653 174.759 57.0907 175.495 57.304L176.919 57.704C177.196 57.7787 177.431 57.8907 177.623 58.04C177.825 58.1787 177.927 58.3707 177.927 58.616C177.927 58.904 177.809 59.1333 177.575 59.304C177.351 59.464 177.052 59.544 176.679 59.544C176.188 59.544 175.745 59.4053 175.351 59.128C174.956 58.8507 174.641 58.4667 174.407 57.976L172.839 58.728C173.095 59.4747 173.564 60.072 174.247 60.52C174.94 60.968 175.751 61.192 176.679 61.192Z" fill="#83869A"/>
<path d="M84.8 111H91V81.2H79V86.44H84.8V111ZM98.9234 117.6C103.457 116.667 105.723 113.627 105.723 108.48V105H99.7234V111H102.403C102.217 111.987 101.817 112.773 101.203 113.36C100.617 113.973 99.8568 114.387 98.9234 114.6V117.6ZM124.433 111H130.633V104.6H135.233V99.4H130.633V81.2H124.033L111.233 99.4V104.6H124.433V111ZM124.433 99.4H117.273L124.433 88.8V99.4ZM148.238 111.48C150.318 111.48 152.171 111.04 153.798 110.16C155.424 109.253 156.704 108.027 157.638 106.48C158.598 104.907 159.078 103.147 159.078 101.2C159.078 99.2533 158.678 97.5467 157.878 96.08C157.104 94.6133 155.998 93.4667 154.558 92.64C153.118 91.7867 151.398 91.36 149.398 91.36C147.584 91.36 146.131 91.68 145.038 92.32L145.838 86.4H157.998V81.2H141.358L138.958 97.88L144.038 99.08C144.384 98.2267 144.931 97.6 145.678 97.2C146.424 96.7733 147.278 96.56 148.238 96.56C149.624 96.56 150.744 96.9867 151.598 97.84C152.451 98.6933 152.878 99.8133 152.878 101.2C152.878 102.587 152.451 103.72 151.598 104.6C150.744 105.453 149.624 105.88 148.238 105.88C147.144 105.88 146.158 105.587 145.278 105C144.398 104.413 143.758 103.48 143.358 102.2L137.878 104.04C138.198 105.587 138.878 106.92 139.918 108.04C140.958 109.133 142.211 109.987 143.678 110.6C145.144 111.187 146.664 111.48 148.238 111.48ZM167.808 111H174.008V81.2H162.008V86.44H167.808V111Z" fill="#13183F"/>
<defs>
<filter id="filter0_d_0_546" x="0" y="0" width="307" height="228" filterUnits="userSpaceOnUse" color-interpolation-filters="sRGB">
<feFlood flood-opacity="0" result="BackgroundImageFix"/>
<feColorMatrix in="SourceAlpha" type="matrix" values="0 0 0 0 0 0 0 0 0 0 0 0 0 0 0 0 0 0 127 0" result="hardAlpha"/>
<feOffset dy="34"/>
<feGaussianBlur stdDeviation="27"/>
<feColorMatrix type="matrix" values="0 0 0 0 0.0241629 0 0 0 0 0.0843621 0 0 0 0 0.553916 0 0 0 0.158854 0"/>
<feBlend mode="normal" in2="BackgroundImageFix" result="effect1_dropShadow_0_546"/>
<feBlend mode="normal" in="SourceGraphic" in2="effect1_dropShadow_0_546" result="shape"/>
</filter>
</defs>
</svg>
