<svg width="263" height="228" viewBox="0 0 263 228" fill="none" xmlns="http://www.w3.org/2000/svg">
<g filter="url(#filter0_d_0_553)">
<rect x="54" y="20" width="155" height="120" rx="15" fill="white"/>
</g>
<path d="M79.152 61H81.328V52.744L85.024 57.8H85.28L88.96 52.904V61H91.152V49.08H89.072L85.2 54.456L81.232 49.08H79.152V61ZM97.3853 61.192C98.2706 61.192 99.0439 60.9947 99.7053 60.6C100.377 60.1947 100.847 59.6827 101.113 59.064L99.4173 58.232C99.2253 58.5627 98.9586 58.8347 98.6173 59.048C98.2866 59.2507 97.8813 59.352 97.4013 59.352C96.7719 59.352 96.2439 59.16 95.8173 58.776C95.3906 58.392 95.1453 57.88 95.0813 57.24H101.353C101.396 57.1227 101.423 56.9893 101.433 56.84C101.455 56.68 101.465 56.52 101.465 56.36C101.465 55.5813 101.3 54.872 100.969 54.232C100.639 53.592 100.159 53.08 99.5293 52.696C98.8999 52.3013 98.1319 52.104 97.2253 52.104C96.4146 52.104 95.6786 52.3013 95.0173 52.696C94.3666 53.0907 93.8493 53.6293 93.4653 54.312C93.0919 54.984 92.9053 55.7573 92.9053 56.632C92.9053 57.4747 93.0919 58.2427 93.4653 58.936C93.8386 59.6293 94.3613 60.1787 95.0333 60.584C95.7053 60.9893 96.4893 61.192 97.3853 61.192ZM97.2253 53.832C97.7799 53.832 98.2386 54.0027 98.6013 54.344C98.9746 54.6747 99.1826 55.1067 99.2253 55.64H95.1293C95.2466 55.064 95.4919 54.6213 95.8653 54.312C96.2493 53.992 96.7026 53.832 97.2253 53.832ZM103.054 61H105.15V55.896C105.15 55.3307 105.305 54.8773 105.614 54.536C105.923 54.1947 106.329 54.024 106.83 54.024C107.342 54.024 107.747 54.1947 108.046 54.536C108.355 54.8667 108.51 55.32 108.51 55.896V61H110.606V55.896C110.606 55.3307 110.761 54.8773 111.07 54.536C111.379 54.1947 111.785 54.024 112.286 54.024C112.798 54.024 113.203 54.1947 113.502 54.536C113.811 54.8667 113.966 55.32 113.966 55.896V61H116.062V55.4C116.062 54.7493 115.918 54.1787 115.63 53.688C115.353 53.1867 114.974 52.7973 114.494 52.52C114.014 52.2427 113.465 52.104 112.846 52.104C112.27 52.104 111.747 52.2213 111.278 52.456C110.819 52.6907 110.441 53.0427 110.142 53.512C109.886 53.0853 109.518 52.744 109.038 52.488C108.569 52.232 108.041 52.104 107.454 52.104C106.91 52.104 106.425 52.2107 105.998 52.424C105.571 52.6373 105.246 52.9573 105.022 53.384V52.296H103.054V61ZM122.587 61.192C123.43 61.192 124.182 60.9947 124.843 60.6C125.505 60.1947 126.027 59.6507 126.411 58.968C126.795 58.2747 126.987 57.5013 126.987 56.648C126.987 55.7947 126.795 55.0267 126.411 54.344C126.027 53.6507 125.505 53.1067 124.843 52.712C124.182 52.3067 123.435 52.104 122.603 52.104C121.473 52.104 120.582 52.4613 119.931 53.176V48.888H117.835V61H119.803V60.024C120.123 60.3973 120.523 60.6853 121.003 60.888C121.494 61.0907 122.022 61.192 122.587 61.192ZM122.347 59.272C121.889 59.272 121.473 59.16 121.099 58.936C120.737 58.712 120.449 58.4027 120.235 58.008C120.033 57.6133 119.931 57.16 119.931 56.648C119.931 56.136 120.033 55.6827 120.235 55.288C120.449 54.8933 120.737 54.584 121.099 54.36C121.473 54.136 121.889 54.024 122.347 54.024C122.827 54.024 123.249 54.1413 123.611 54.376C123.985 54.6 124.278 54.9093 124.491 55.304C124.705 55.6987 124.811 56.1467 124.811 56.648C124.811 57.1493 124.705 57.6027 124.491 58.008C124.278 58.4027 123.985 58.712 123.611 58.936C123.249 59.16 122.827 59.272 122.347 59.272ZM132.713 61.192C133.599 61.192 134.372 60.9947 135.033 60.6C135.705 60.1947 136.175 59.6827 136.441 59.064L134.745 58.232C134.553 58.5627 134.287 58.8347 133.945 59.048C133.615 59.2507 133.209 59.352 132.729 59.352C132.1 59.352 131.572 59.16 131.145 58.776C130.719 58.392 130.473 57.88 130.409 57.24H136.681C136.724 57.1227 136.751 56.9893 136.761 56.84C136.783 56.68 136.793 56.52 136.793 56.36C136.793 55.5813 136.628 54.872 136.297 54.232C135.967 53.592 135.487 53.08 134.857 52.696C134.228 52.3013 133.46 52.104 132.553 52.104C131.743 52.104 131.007 52.3013 130.345 52.696C129.695 53.0907 129.177 53.6293 128.793 54.312C128.42 54.984 128.233 55.7573 128.233 56.632C128.233 57.4747 128.42 58.2427 128.793 58.936C129.167 59.6293 129.689 60.1787 130.361 60.584C131.033 60.9893 131.817 61.192 132.713 61.192ZM132.553 53.832C133.108 53.832 133.567 54.0027 133.929 54.344C134.303 54.6747 134.511 55.1067 134.553 55.64H130.457C130.575 55.064 130.82 54.6213 131.193 54.312C131.577 53.992 132.031 53.832 132.553 53.832ZM138.382 61H140.478V56.152C140.478 55.4907 140.66 54.9787 141.022 54.616C141.396 54.2427 141.876 54.056 142.462 54.056H143.214V52.2H142.702C142.169 52.2 141.7 52.296 141.294 52.488C140.889 52.68 140.574 53.0267 140.35 53.528V52.296H138.382V61ZM147.679 61.192C148.34 61.192 148.916 61.08 149.407 60.856C149.897 60.632 150.281 60.3227 150.559 59.928C150.836 59.5227 150.975 59.0587 150.975 58.536C150.975 57.928 150.783 57.4053 150.399 56.968C150.015 56.5307 149.46 56.2107 148.735 56.008L147.343 55.592C147.044 55.5067 146.799 55.3947 146.607 55.256C146.415 55.1173 146.319 54.9253 146.319 54.68C146.319 54.424 146.42 54.216 146.623 54.056C146.825 53.896 147.103 53.816 147.455 53.816C147.892 53.816 148.287 53.9333 148.639 54.168C149.001 54.4027 149.252 54.7173 149.391 55.112L150.991 54.36C150.724 53.656 150.276 53.1067 149.647 52.712C149.017 52.3067 148.292 52.104 147.471 52.104C146.841 52.104 146.281 52.216 145.791 52.44C145.311 52.664 144.932 52.9787 144.655 53.384C144.388 53.7787 144.255 54.2427 144.255 54.776C144.255 55.3733 144.441 55.8907 144.815 56.328C145.199 56.7653 145.759 57.0907 146.495 57.304L147.919 57.704C148.196 57.7787 148.431 57.8907 148.623 58.04C148.825 58.1787 148.927 58.3707 148.927 58.616C148.927 58.904 148.809 59.1333 148.575 59.304C148.351 59.464 148.052 59.544 147.679 59.544C147.188 59.544 146.745 59.4053 146.351 59.128C145.956 58.8507 145.641 58.4667 145.407 57.976L143.839 58.728C144.095 59.4747 144.564 60.072 145.247 60.52C145.94 60.968 146.751 61.192 147.679 61.192Z" fill="#83869A"/>
<path d="M79.68 111H99.88V105.8H87.56L94.4 98.76C96.1867 96.9467 97.4933 95.2933 98.32 93.8C99.1733 92.28 99.6 90.7067 99.6 89.08C99.6 87.4 99.1867 85.9333 98.36 84.68C97.5333 83.4267 96.3733 82.4533 94.88 81.76C93.3867 81.0667 91.6533 80.72 89.68 80.72C88.1067 80.72 86.6 81.04 85.16 81.68C83.72 82.2933 82.4933 83.1733 81.48 84.32C80.4667 85.4667 79.8 86.8133 79.48 88.36L84.88 90.12C85.28 88.84 85.9067 87.8933 86.76 87.28C87.6133 86.64 88.5867 86.32 89.68 86.32C90.7467 86.32 91.6267 86.64 92.32 87.28C93.04 87.8933 93.4 88.7467 93.4 89.84C93.4 90.4533 93.24 91.08 92.92 91.72C92.6267 92.36 92.0667 93.16 91.24 94.12C90.44 95.0533 89.2533 96.3333 87.68 97.96L79.68 106.2V111ZM104.908 111H112.308L120.588 100.32C121.708 98.8533 122.548 97.5733 123.108 96.48C123.668 95.36 124.041 94.3333 124.228 93.4C124.415 92.4667 124.508 91.5333 124.508 90.6C124.508 88.7067 124.055 87.0267 123.148 85.56C122.241 84.0667 120.988 82.8933 119.388 82.04C117.815 81.16 115.988 80.72 113.908 80.72C111.855 80.72 110.028 81.16 108.428 82.04C106.828 82.92 105.575 84.12 104.668 85.64C103.761 87.16 103.308 88.9067 103.308 90.88C103.308 92.6667 103.708 94.28 104.508 95.72C105.335 97.1333 106.455 98.2533 107.868 99.08C109.308 99.9067 110.948 100.32 112.788 100.32C112.948 100.32 113.108 100.32 113.268 100.32L104.908 111ZM113.908 95.24C112.681 95.24 111.641 94.84 110.788 94.04C109.935 93.2133 109.508 92.1333 109.508 90.8C109.508 89.4667 109.935 88.3867 110.788 87.56C111.641 86.7333 112.681 86.32 113.908 86.32C115.135 86.32 116.175 86.7333 117.028 87.56C117.881 88.3867 118.308 89.4667 118.308 90.8C118.308 92.1333 117.881 93.2133 117.028 94.04C116.175 94.84 115.135 95.24 113.908 95.24ZM128.169 111H134.169V104.32L136.569 101.68L142.129 111H148.929L141.049 97.96L148.969 89.16H141.569L134.169 97.04V80.72H128.169V111Z" fill="#13183F"/>
<defs>
<filter id="filter0_d_0_553" x="0" y="0" width="263" height="228" filterUnits="userSpaceOnUse" color-interpolation-filters="sRGB">
<feFlood flood-opacity="0" result="BackgroundImageFix"/>
<feColorMatrix in="SourceAlpha" type="matrix" values="0 0 0 0 0 0 0 0 0 0 0 0 0 0 0 0 0 0 127 0" result="hardAlpha"/>
<feOffset dy="34"/>
<feGaussianBlur stdDeviation="27"/>
<feColorMatrix type="matrix" values="0 0 0 0 0.0241629 0 0 0 0 0.0843621 0 0 0 0 0.553916 0 0 0 0.158854 0"/>
<feBlend mode="normal" in2="BackgroundImageFix" result="effect1_dropShadow_0_553"/>
<feBlend mode="normal" in="SourceGraphic" in2="effect1_dropShadow_0_553" result="shape"/>
</filter>
</defs>
</svg>
